<svg viewBox="0 0 142 120" xmlns="http://www.w3.org/2000/svg"><circle cx="71" cy="54" fill="#e9edf8" r="54"/><path d="m0 0h142v120h-142z" fill="none"/><path d="m32.802 32.53 3.81 55.199h33.261l3.81-55.199z" fill="#001927"/><path d="m36.191 38.422 3.854 46.056h26.395l3.854-46.056z" fill="#f0a534"/><path d="m37.95668 82.484h34.00232a0 0 0 0 1 0 0v3.59074a0 0 0 0 1 0 0h-36.9478a0 0 0 0 1 0 0v-.64526a2.94548 2.94548 0 0 1 2.94548-2.94548z" fill="#f0a534"/><g fill="#001927"><path d="m66.665 120.1h2.496l3.884-31.067h-6.38z"/><path d="m30.43114 85.71958h43.35866v4.83766h-43.35866z"/><path d="m38.291 120.1h-2.497l-3.883-33.074h6.38z"/><path d="m74.50354 64.86258c-4.44421-7.1272 1.60217-12.44417-2.82276-19.48651a9.1934 9.1934 0 0 0 -3.98738-3.47537c-3.09547-1.3795-9.35138-5.24721-12.95666-5.57629-4.14043-.37793-14.11939 5.05608-14.4184 6.517-1.156 5.64821-1.624 12.45262.53335 22.02115z"/></g><path d="m80.2231 57.67183-8.81856 2.38892-5.79054-7.00964s7.15805-4.32828 7.74939-4.18045l4.16827 5.348z" fill="#63b2bf"/><path d="m70.257 43.305 5.566 7.507-7.619 6.688-5.972-1.252z" fill="#001927"/><path d="m78.80262 56.38636c-1.67086-.99317-6.89014-1.10029-10.141-.0844-3.09633.51604-10.20962 1.01589-10.20962 1.01589l-4.31242-.9801a6.74334 6.74334 0 0 0 -5.2723.96407c-3.25346 2.19813-7.93936 6.0201-7.93936 6.0201l37.70272.11723a12.01779 12.01779 0 0 0 1.63419.086 1.91064 1.91064 0 0 0 1.54817-2.92432s-1.09279-3.07472-3.01038-4.21447z" fill="#63b2bf"/><path d="m53.57569 47.93538s-6.38957-3.636-6.95926-4.873a3.55545 3.55545 0 0 1 3.093-5.0972h8.35734a3.55545 3.55545 0 0 1 3.093 5.0972c-.56965 1.237-6.26377 4.873-7.58408 4.873z" fill="#63b2bf"/><path d="m31.78488 54.27018s-3.20005 4.87627-3.50482 8.2287h7.00963v-8.99062a24.48422 24.48422 0 0 1 -3.50481.76192z" fill="#63b2bf"/><path d="m29.95628 57.31785s2.7031-4.47634 9.29414-2.54341a12.579 12.579 0 0 0 6.55372.10527l7.13705-.77959-10.18471-13.23967a26.37477 26.37477 0 0 0 -8.83823 5.79055z" fill="#001927"/><path d="m43.7531 29.37623a4.52047 4.52047 0 0 0 -.24291 5.86886 5.14312 5.14312 0 0 0 3.82007 1.89178" fill="#fff"/><path d="m64.46094 28.96272c1.54836 1.77612 1.088 4.63375-.25962 6.28237a5.14312 5.14312 0 0 1 -3.82008 1.89178" fill="#fff"/><path d="m46.93823 38.78072c-2.1626-3.97949-3.604-8.69986-2.876-12.98214.78914-4.64176 3.83393-9.21319 10.01263-9.41832a16.63038 16.63038 0 0 1 4.89175.63592c2.62388.71091 3.8205 3.85371 4.46631 6.4944 1.71516 7.01321-2.36874 20.724-9.53076 20.724-3.44689.00002-6.29844-4.22927-6.96393-5.45386z" fill="#fff"/><path d="m64.27139 20.10321c-.27046-.53751-1.831-1.7658-1.80337-2.29728.00729-.13788.12745-.23825.23177-.32873a2.89574 2.89574 0 0 0 .93045-1.59 3.98986 3.98986 0 0 1 -3.15839.69428 4.64943 4.64943 0 0 0 1.45285-2.51548 12.79866 12.79866 0 0 1 -4.55007 1.88768 6.91922 6.91922 0 0 0 .89131-1.69906 22.14112 22.14112 0 0 1 -5.68759 1.73338 6.9257 6.9257 0 0 0 -.045-2.1263 9.06423 9.06423 0 0 1 -3.68488 3.37185 7.25564 7.25564 0 0 0 -3.80623 1.9885 3.1202 3.1202 0 0 0 -.60954 3.20005c.1256.43952-2.4357 3.33041-.7356 8.01077a22.52019 22.52019 0 0 1 .97115 3.59323c.28758-.25663.56141-1.84805.824-2.13257l.4361-.80969q-.02133-1.91-.04279-3.83726a7.74392 7.74392 0 0 0 5.32285 2.13523 5.85582 5.85582 0 0 1 -.85782-1.43782 7.8021 7.8021 0 0 0 5.84339.73922 5.60407 5.60407 0 0 1 -1.10381-1.03439c4.825.35619 7.05867-1.29475 7.05867-1.29475-.01444 1.30136-.03862 3.44017-.05306 4.72977l.4361.80969c.23795.25781.35074 1.48711.5881 1.74411.09822.10633 1.36885-4.447 1.41155-4.65636a24.04019 24.04019 0 0 0 .48491-4.88527 9.03362 9.03362 0 0 0 -.74505-3.9928z" fill="#509ba8"/><path d="m43.11928 27.09945a9.13725 9.13725 0 0 0 .57784 3.33338 22.52155 22.52155 0 0 1 .97114 3.59321c.28758-.25662.56139-1.848.824-2.13254l.4361-.80969c-.00692-.61734-.01384-1.24035-.02076-1.86037a13.62139 13.62139 0 0 1 -2.78832-2.12399z" fill="#0d6069"/><path d="m62.10983 29.83022c-.00514.45894-.01.89131-.01407 1.25359l.4361.80969c.23795.25781.35075 1.48707.5881 1.74407.09822.10633 1.36885-4.44694 1.41155-4.65632.01206-.05908.01541-.11965.027-.1788-.80201.38431-1.62181.72829-2.44868 1.02777z" fill="#0d6069"/><path d="m59.875 45.488-1.74 4.889-1.228-4.886z" fill="#63b2bf"/><path d="m56.906 44.502-6.411.692 5.185-4.589z" fill="#fff"/><path d="m58.34958 43.74577a3.52848 3.52848 0 0 0 2.91577-1.70711.84252.84252 0 0 0 -.69165-1.322l-5.84813.906-3.93913 3.47444" fill="#fff"/><path d="m53.87967 39.2395a.71968.71968 0 0 0 -.38259.94312l3.0362 7.18092 2.28663 5.18681 1.47111 1.6269-.1454-2.18742-2.28662-5.18683-3.03619-7.18092a.71968.71968 0 0 0 -.94312-.38259z" fill="#87064b"/><path d="m60.146 51.99-1.326.56 1.471 1.627" fill="#87064b"/><path d="m54.91628 49.07338a10.49569 10.49569 0 0 0 1.89588.78772l-.22963.74252-.35055.4002a1.32485 1.32485 0 0 1 -1.0953.4542c-.74816-.05706-1.88456-.2449-2.15989-.85545a.74456.74456 0 0 1 -.06191-.429l-.10769-.01266a1.52112 1.52112 0 0 1 -1.77623-.20826l-.06569-.00771-.27744.31942-13.82347 13.36121-8.88906-.06a12.27892 12.27892 0 0 1 5.7737-8.31673l13.50607-8.07776a19.3085 19.3085 0 0 1 3.5613-2.19608c.42204 1.84294 2.40425 3.1979 4.09991 4.09838z" fill="#fff"/><path d="m38.40606 55.20408a10.23192 10.23192 0 0 1 -2.86275-1.02839l-1.79431 1.07313a12.27866 12.27866 0 0 0 -5.77371 8.31673l8.889.06 10.49899-10.14787a12.16043 12.16043 0 0 1 -8.95722 1.7264z" fill="#fff"/><path d="m54.91627 49.07338a13.185 13.185 0 0 1 -2.40867-1.59826 3.121 3.121 0 0 1 -.67487 2.8714 2.207 2.207 0 0 0 .97448-.1856l.10766.01265a.74466.74466 0 0 0 .06189.429c.27536.61054 1.41178.79835 2.15993.85544a1.325 1.325 0 0 0 1.09531-.45423l.35056-.40018.22959-.74252a10.49525 10.49525 0 0 1 -1.89588-.7877z" fill="#fff"/><path d="m57.0989 45.09706s-5.421 3.14609-5.88625 2.0116a58.11175 58.11175 0 0 1 -21.50365 16.49202l7.15532.02484 13.82348-13.36115.27751-.31943.06566.00769a1.52109 1.52109 0 0 0 1.77624.20829l.10766.01265a.74466.74466 0 0 0 .06189.429c.27536.61054 1.41178.79835 2.15993.85544a1.29716 1.29716 0 0 0 .6955-.15055l.00422.005s.32926.29369 2.12488-2.5712c.24471-.39037-.86239-3.6442-.86239-3.6442z" fill="#63b2bf"/><path d="m53.06311 71.12885 25.67944 2.55865a4.48242 4.48242 0 0 1 2.9963 6.17764l-17.22885 40.23463h-.62618l3.77911-35.49842-11.809-.23618z" fill="#fff"/><path d="m75.96678 82.21246c-.53385-5.177-10.16456-7.52916-15.64537-10.3604l-7.25832-.72326 1.81485 13.44134h12.51754l-3.51173 35.52963h.62617s11.89508-33.63828 11.45686-37.88731z" fill="#63b2bf"/><path d="m42.09788 73.99247-6.351.1333c-2.51257 5.68205.66085 10.50461 3.2096 10.50461l25.01058-.029 7.99704-13.74311z" fill="#001927"/><path d="m39.53639 86.53434c-2.909-6.51176.102-11.77214 6.66745-11.64821 2.93658.40915 5.89188 3.20649 6.18011 5.84978l-.4451 39.36386h-.62233l-11.68971-33.363z" fill="#fff"/><path d="m46.66485 74.99556c-.154-.03429-.30673-.08792-.461-.10944-4.92406-.093-7.84881 2.84277-7.77614 7.06357a11.82281 11.82281 0 0 0 1.1087 4.58464l.09044.20242 11.68974 33.363h.06841a96.74208 96.74208 0 0 1 -3.51794-14.2817c-1.1686-6.48386-4.45765-18.891 2.54333-20.11732a3.54916 3.54916 0 0 1 1.87981.51418l.09374-5.47906c-.27315-2.50438-2.94194-5.12157-5.71909-5.74029z" fill="#63b2bf"/><path d="m20.9523 64.44983h101.11757v11.31806h-101.11757z" fill="#001927"/><path d="m19.933 120.1h.553l9.318-52.855h-9.871z" fill="#001927"/><path d="m121.917 120.1h-.553l-9.318-52.855h9.871z" fill="#001927"/><path d="m35.59446 58.26527h14.69474c2.9695.12444 4.427 2.05023 5.33342 4.46772a1.1204 1.1204 0 0 1 0 .90442s-25.16178-.30035-24.83848-.02433l.509-.68857z" fill="#fff"/><path d="m73.45266 58.26527h-14.69474c-2.96949.12444-4.427 2.05023-5.33341 4.46772a1.12035 1.12035 0 0 0 0 .90442s25.16177-.30035 24.83848-.02433l-.509-.68857z" fill="#fff"/><path d="m30.10811 62.29664h28.19146a0 0 0 0 1 0 0v2.22785a0 0 0 0 1 0 0h-28.19146a.91375.91375 0 0 1 -.91375-.91375v-.40035a.91375.91375 0 0 1 .91375-.91375z" fill="#87064b"/><path d="m51.28939 62.29664h28.19146a0 0 0 0 1 0 0v2.22785a0 0 0 0 1 0 0h-28.19146a.91375.91375 0 0 1 -.91375-.91375v-.40035a.91375.91375 0 0 1 .91375-.91375z" fill="#87064b" transform="matrix(-1 0 0 -1 129.85649 126.82113)"/><path d="m106.40393 19.97316h3.33607v42.70169h-3.33607z" fill="#001927"/><path d="m117.747 64.51h-9.675-9.675v-2.002l9.675-2.002 9.675 2.002z" fill="#001927"/><path d="m14.86852 63.34369h112.26295v3.87149h-112.26295z" fill="#f0a534"/><path d="m58.33188 43.57584-2.41266-.74667-2.51433.00052c-1.61616.6674-2.57763 1.82771-3.95592 2.90371 0 0-10.49528 6.34972-14.53808 8.80823 4.64135 3.47026 16.20193-7.09779 16.20193-7.09779a19.3347 19.3347 0 0 0 3.73239 1.14707c.64973 0 1.774-1.68315 2.43425-2.77306a3.18392 3.18392 0 0 0 2.5953-.32986 1.85734 1.85734 0 0 0 -1.54288-1.91215z" fill="#fff"/><path d="m100.63923 38.10899h1.21147v10.11176h-1.21147z" fill="#f0a534"/><rect fill="#f0a534" height="3.59893" rx="1.28866" width="3.14192" x="99.67414" y="46.27827"/><path d="m126.567 42.731h-36.99l8.886-19.495h19.218z" fill="#fff"/></svg>