<svg viewBox="0 0 142 120" xmlns="http://www.w3.org/2000/svg"><circle cx="71" cy="54" fill="#e9edf8" r="54"/><path d="m65.89142 45.45206c-.01976-.06108-.20741-.71693-.22063-.71493l.93842-.14117c.04088-.15749.08172-.32293.1226-.48449q.0755.25724.1525.51389c-.07777.06376-.15053.12481-.22487.18676-.24409.20338-.47417.42978-.73263.615z" fill="#87064b"/><path d="m92.74373 36.00526c2.19753 2.58276 2.40359 6.67259 2.01259 9.86137-.4773 3.89271-2.03024 7.47306-3.46778 11.0826-1.29333 3.24749-2.68979 6.90376-5.48233 9.1839a5.66277 5.66277 0 0 1 -5.82294 1.018 10.67555 10.67555 0 0 1 -2.58112-1.393 18.66247 18.66247 0 0 1 -1.872-1.54178.64772.64772 0 0 1 -.17526.00615l.07557-.09909-.003-.00283c-.4376-.41214-.86056-.84084-1.26683-1.2757q-.38574-.41378-.75-.82856c-.83878-.95512-1.58987-1.89983-2.22236-2.7087-.28815-.36847-.57-.74253-.85043-1.11775-.23728-.31745-.47023-.63856-.70215-.96056a88.98337 88.98337 0 0 1 -7.22481-12.1242c-1.213-2.41768-2.34348-4.87193-3.41333-7.32778q-.348-.79875-.6878-1.5971c-.00565-.00006-.01073.00161-.0164.00145-.01773.00035-.03382-.00538-.05149-.00589l-.03578-.00409-.005.00379a.48717.48717 0 0 1 -.68225-.096l-.00406-.00611a1.10281 1.10281 0 0 1 -.19854-.375 1.04821 1.04821 0 0 1 1.16314-1.67972 1.1829 1.1829 0 0 1 .805 1.43124q.34481.81257.69947 1.62091 1.78092 4.06316 3.82361 7.99734 2.05615 3.98409 4.40642 7.80051c.56283.91394 1.16041 1.87145 1.79241 2.83878a66.29589 66.29589 0 0 1 -3.35123-7.91735c.13245-.01735.27034-.03774.42028-.06453.07383-.01318.17754-.03656.30383-.06791.12976-.03222.284-.07308.45352-.11978a65.32344 65.32344 0 0 0 3.86388 8.84176v.00006c.084.15905.16535.31935.25068.47776-.1331.10926-.25942.21312-.38025.31268-.13088.10781-.2528.20855-.36788.30372.08385.11975.16942.23889.25442.3583a40.01949 40.01949 0 0 0 2.65111 3.359c.42376.47728.85882.93968 1.308 1.38051.22617.22195.45433.44053.68712.65126l.00546.00471q.67107.60369 1.378 1.13669a15.94316 15.94316 0 0 0 1.97961 1.2897c.16883.0917.334.16625.49883.23925 6.57311 2.91252 10.0311-8.71292 11.73776-13.16463a26.9963 26.9963 0 0 0 2.02015-8.79107 14.19231 14.19231 0 0 0 -.57893-4.559c-.34283-1.11509-1.95554-4.55572-3.54906-3.32478a1.05088 1.05088 0 0 1 -.01814.72565l-2.37344 5.94479-2.89351 5.787-.39262.57108-.43249-1.3654.77546-3.27649-.00977-.0212 3.36328-8.42364a1.05484 1.05484 0 0 1 .99364-.66232c1.34695-1.41069 2.89645-.78926 4.13974.672z" fill="#87064b"/><g fill="#509ba8"><path d="m47.397 25.534-.002.001z"/><path d="m50.23154 41.47273-.56814-.45473.56814.45468c.156-.00681.31158-.02049.46722-.03281.24347-.01926.48615-.0467.72828-.07842-.24213.03172-.48484.05918-.72831.07844-.15564.01234-.3112.02603-.46719.03284z"/><path d="m56.937 37.304-1.298 2.765z"/><path d="m65.32638 30.0275c-2.30408 2.09778-3.80088 2.585-5.657 2.65662l-.06585-.91819a2.467 2.467 0 0 0 -3.91762-.24774 3.71177 3.71177 0 0 0 -.87509 2.28721 18.73636 18.73636 0 0 1 -7.01209-7.38594c-.14289-.29062-.27809-.58522-.40132-.88591.33165-.168.56852-.26442.56852-.26442s3.58607-10.62886 15.42107-4.31651c1.11335-.47655 2.5341-1.26264 2.651-2.66542a12.82558 12.82558 0 0 1 1.95208 3.4957 7.865 7.865 0 0 0 2.88594-.99265 15.98716 15.98716 0 0 1 -1.559 4.58409 23.832 23.832 0 0 1 2.30898 1.59466c.18951.23575-2.08353.52694-3.92741.7218l-.03728.0039a29.53561 29.53561 0 0 1 -2.33493 2.3328z"/><path d="m87.28506 42.55394.14894 2.234-.24341 2.86061c-.1328 1.561-2.24374 3.78946-3.5871 4.59546 0 0-2.836 4.45162-4.535 6.88517-.49869.71432-1.003 1.423-1.50293 2.11309-.4968.68578-.98815 1.35375-1.46032 1.9854l-.00546-.00471c-.23279-.21073-.46095-.42931-.68712-.65126-.44915-.44083-.88419-.90323-1.308-1.38051l.22452-.26773c.90823-1.08351 1.98573-2.37561 3.062-3.66923.346-.41582.69071-.83051 1.03017-1.239 2.2595-2.71925 4.24681-5.12111 4.24681-5.12111l.63776-.92763.094-.13673.109-.1586.40484-.58885.39262-.57108 2.89362-5.787z"/><path d="m75.42755 64.12051.003.00283-.07556.0991c-.55761.73381-1.077 1.40427-1.52992 1.97637l-.02194.02792a4.6878 4.6878 0 0 1 -5.7445 1.27778c-2.37684-1.17721-4.84538-2.48259-7.27538-3.86016q-.22473-.12707-.44931-.25547c.77478-1.01849 1.57978-1.98919 2.39978-2.947l.00778.00256c.38391.12661 2.88911 1.24161 4.07258 1.89461 2.03565 1.12314 4.33817 2.25028 5.27995 1.21427.2008-.22086.67641-.77784 1.31665-1.537q.3643.41568.75.82856c.40632.43486.82922.86356 1.26687 1.27563z"/></g><path d="m45.47141 34.7554a10.4496 10.4496 0 0 1 -.55632-6.18059 3.98417 3.98417 0 0 1 1.63251-2.55109l.06743-.0446c.12956-.08379.25888-.16057.38414-.23172l.04344-.0248c.12481-.06994.24547-.13407.3547-.18907.12322.30068.25842.59531.40131.88593a18.73643 18.73643 0 0 0 7.01209 7.38594 3.681 3.681 0 0 0 .7325 2.3968 3.89 3.89 0 0 0 1.39417 1.1011l-1.298 2.76511q-.31468.15765-.63707.29835a13.43387 13.43387 0 0 1 -2.67823.84741c-.297.06079-.59645.10795-.897.1473-.24213.03172-.48481.05916-.72828.07842-.15564.01232-.31122.026-.46722.03281l-.56818-.4547c-.28163-.39419-.55784-.76545-.82862-1.1237a22.37131 22.37131 0 0 1 -3.36337-5.1389z" fill="#0d6069"/><path d="m61.68754 84.40385h28.022a5.30138 5.30138 0 0 1 4.65453 2.213c.03126.05541.06109.11131.08831.16807.01157.02412.0262.04723.037.0716a2.52771 2.52771 0 0 1 .22356 1.03273v1.33232s-39.09988.04155-39.12907 0c-.11685-.16626-.22654-.41709-.34184-.58432a68.80538 68.80538 0 0 1 -6.38157-11.46071h8.63954l.89225 2.16365c.07409.15432.13047.30792.19053.46165a6.14692 6.14692 0 0 1 .43061 2.403 8.41451 8.41451 0 0 1 -1.0044 3.60085l-.00409.0083.009-.00665a7.39541 7.39541 0 0 1 2.33365-1.20784 4.8569 4.8569 0 0 1 1.33999-.19565z" fill="#f0a534"/><path d="m38.13022 45.10731-4.71622-14.606.10652-.15981c4.732-.44694 8.10141.78177 8.46141 4.452l.60494 6.16774a4.08022 4.08022 0 0 1 -1.99941 3.63151 5.23809 5.23809 0 0 1 4.95271 3.58216l2.39427 5.80586 6.44926 15.63887h26.09962a2.46086 2.46086 0 0 1 2.42311 2.04761l.01322.46289h-38.99565v-.46289a2.58123 2.58123 0 0 1 1.39781-1.65319 3.64458 3.64458 0 0 1 .76623-.26133l-7.80993-24.18737z" fill="#f0a534"/><path d="m47.93448 53.9809a32.93442 32.93442 0 0 1 .10989-6.13057q.01369-.098.03613-.19455a2.20865 2.20865 0 0 1 2.6514-1.65116l8.83146 1.68256.17428.0332a12.42124 12.42124 0 0 1 3.73363 4.2456c.71394.69331 1.4062 1.44164 2.06666 2.21822l.00006.0001c.41126.4836.811.97721 1.19447 1.47577-.16059.20839-.32391.40793-.48591.61164-.69113.86887-1.39224 1.70279-2.09464 2.52q-.6977.8088-1.388 1.61465l-.03021.03561c-.82.95778-1.625 1.92848-2.39978 2.947q.22425.12789.4493.25546c2.43 1.37761 4.89855 2.68293 7.27536 3.86016a4.66883 4.66883 0 0 0 4.397-.126c.96254.76847 1.96218 1.52037 2.99189 2.24105h-21.06377z" fill="#001927"/><path d="m74.92479 74.72954a13.75048 13.75048 0 0 0 1.162-.89984h6.41394a.44073.44073 0 0 0 .44073-.44072v-.66579c4.92433.2727 12.60024 1.059 12.60024 1.059.02838.1235.04352.25493.06687.38143a10.70057 10.70057 0 0 1 .14553 1.13338l-.3965-.00888c-.01568 2.10066-.29207 4.579-.56726 7.04173-.10646.95248-.2114 1.90074-.30046 2.82313-.01557.16128-.02951.32-.044.47954q-.04535.49921-.08186.98436a5.30135 5.30135 0 0 0 -4.65453-2.213h-28.022a4.85728 4.85728 0 0 0 -1.34.19564 7.39567 7.39567 0 0 0 -2.33366 1.20784l-.0049-.00164a8.41446 8.41446 0 0 0 1.00441-3.60085 6.14692 6.14692 0 0 0 -.43061-2.403c-.06006-.15373-.11644-.30733-.19053-.46165l-.8922-2.1637h9.59837a13.819 13.819 0 0 0 7.6748-2.3404c.05126-.03443.10089-.07148.15162-.10658z" fill="#001927"/><g fill="#fff"><path d="m49.96124 45.96376c.31607-1.48195.53164-3.32021.69546-4.3135l.04207-.21038c.24347-.01926.48618-.04672.72831-.07844.30051-.0393.6-.08651.897-.1473a13.43387 13.43387 0 0 0 2.67823-.84741q.32256-.14074.63706-.29835l1.29806-2.76508a3.89016 3.89016 0 0 1 -1.39417-1.1011 3.81169 3.81169 0 0 1 .14259-4.684 2.467 2.467 0 0 1 3.91762.24774l.06585.91819c1.85607-.07162 3.35287-.55884 5.657-2.65662a29.53455 29.53455 0 0 0 2.335-2.33281l.03728-.0039c1.4583 4.86935.2692 11.5383-.9668 16.4207-.04088.16156-.08172.327-.1226.48449l-.93842.14117-.962.14471a6.99711 6.99711 0 0 1 -.90129.18628q-2.04228-3.93762-3.82361-7.99736-.35472-.80831-.69947-1.62091a1.18289 1.18289 0 0 0 -.805-1.43124 1.04329 1.04329 0 0 0 -1.16314 1.67971 1.10281 1.10281 0 0 0 .19854.375l.00406.00611.00379.005a.48717.48717 0 0 0 .68342.08725l.03578.00409c.01767.00051.03376.00624.05149.00589.00567.00016.01075-.00151.0164-.00145q.33979.79825.6878 1.5971c1.06985 2.45585 2.20033 4.9101 3.41333 7.32778a10.69964 10.69964 0 0 1 -2.5989-.669l-.24863 3.251-8.83146-1.68256a2.19988 2.19988 0 0 0 -.77065-.0408z"/><path d="m66.24655 56.27164a11.03754 11.03754 0 0 0 3.91133 2.06916s.06633-.05577.18-.15088c.28043.37522.56228.74928.85043 1.11775.63248.80887 1.38358 1.75358 2.22236 2.7087-.64024.75911-1.11585 1.31609-1.31666 1.537-.94179 1.036-3.2443-.09113-5.28-1.21429-1.18346-.653-3.68866-1.76805-4.07257-1.89461l-.00778-.00256.03021-.03561q.69153-.80434 1.388-1.61465c.70244-.8172 1.40354-1.65113 2.09468-2.52001z"/><path d="m71.19914 57.47383c.11507-.09519 8.78917-7.0597 8.78917-7.0597v-.05993a5.05491 5.05491 0 0 1 .95886-3.37788l1.46952-2.59987a1.65989 1.65989 0 0 1 .86911-.74009.61215.61215 0 0 1 .75441.33437 1.499 1.499 0 0 1 .09748.973l-.65634 2.77317.43249 1.3654-.40484.58885-.109.1586-.094.13673-.63776.92763s-1.98731 2.40186-4.24681 5.12111c-.33945.4085-.68417.82319-1.03017 1.239-1.07628 1.29362-2.15377 2.58572-3.062 3.66923l-.22453.26773c-.94339-1.06237-2.82173-3.5976-2.90559-3.71735z"/><path d="m95.14062 82.3674c-.11511-.01227-.233-.025-.35024-.03758.27519-2.46273.55158-4.94107.56726-7.04173l.3965.00888 2.96086.06617a9.133 9.133 0 0 1 7.45038 5.16333l.44024.94332 17.981 38.52885s-10.54042-11.62441-13.88285-16.5122c-1.56155-2.28351-3.72134-5.77215-5.754-9.28927q-.2988-.51611-.59222-1.031-.37929-.66647-.74708-1.32473c-2.17389-3.89115-3.98388-7.48743-4.40475-9.12975a40.69943 40.69943 0 0 1 -4.0651-.34429z"/><path d="m27.84555 38.21293a7.82164 7.82164 0 0 1 -.295-3.36938 7.10343 7.10343 0 0 1 1.60967-3.83232l.01007-.01372.00039.00121a8.80307 8.80307 0 0 1 2.21706-1.89316 1.23157 1.23157 0 0 1 1.799.69175l.22734.704 4.71615 14.606.14789.45805 7.80988 24.18737a3.64458 3.64458 0 0 0 -.76623.26133 2.58123 2.58123 0 0 0 -1.39777 1.65319v.46289h39.01747v1.2588a.44073.44073 0 0 1 -.44074.44072h-6.4139a13.7468 13.7468 0 0 1 -1.162.89984c-.05078.03513-.10041.07217-.15166.1066a13.819 13.819 0 0 1 -7.67481 2.3404h-18.23793a68.80564 68.80564 0 0 0 6.38157 11.46071c.11531.16729.22506.338.34185.50429.02919.04153.05612.08449.08538.12594h39.29558c.02532 0 .047.00549.07126.007a.882.882 0 0 1 .66391.33514 11.66911 11.66911 0 0 1 .88739 2.94149v2.98877a1.81493 1.81493 0 0 1 -1.64889 1.80372l2.14066 4.587 1.21632 2.60626 2.56091 5.4874a7.01285 7.01285 0 0 1 .43868 4.70456 7.2831 7.2831 0 0 1 -7.13964 5.26986l-37.47862-.00008a3.65243 3.65243 0 0 1 3.65242-3.65242h15.86945c3.02321 0 5.474-2.10339 5.474-4.69811 0-7.73407.94931-11.17123-9.69806-11.17123h-11.14153a4.15413 4.15413 0 0 1 -4.01967-3.1158h-1.27018a9.52763 9.52763 0 0 1 -7.761-4.00117l-4.07253-5.71924a6.9009 6.9009 0 0 1 -.96306-1.9369z"/></g><path d="m95.75414 75.297a10.7 10.7 0 0 0 -.14553-1.13333l5.14938.1129a6.04526 6.04526 0 0 1 3.898 2.64105 9.93355 9.93355 0 0 1 1.9496 4.55221l-.44024-.94333a9.133 9.133 0 0 0 -7.45035-5.16336z" fill="#63b2bf"/><g fill="#368c99"><path d="m65.8897 45.47134a35.94153 35.94153 0 0 1 3.10039-2.44834c.79485-.55961 1.7319-1.34436 2.7693-1.17849a3.65511 3.65511 0 0 1 1.43216.62078 7.30326 7.30326 0 0 1 2.9798 4.48912c.21851.93651.7719 2.948 1.39133 5.43516q-.42777.32744-.85258.65729c-1.8014 1.39878-3.53222 2.80049-4.76279 3.81048-.08533-.1584-.16668-.31871-.25068-.47776.06448-.40351.13294-.8464.20148-1.31584.05341-.36568.10684-.7469.15841-1.13654.20536-1.55483.36044-3.11348.419-4.68129.03047-.81519-1.17732-2.00276-1.63353-2.67-.042.018-.09115.03773-.14653.05909-.277.10676-.71.25253-1.18482.40308-1.20021.38057-2.55083 1.01978-3.8352.76527-1.27144-.25209-.32044-1.85978.21426-2.33201z"/><path d="m66.2466 56.27164c.162-.20371.32532-.40325.48591-.61164-.38347-.49856-.78321-.99217-1.19447-1.47577l-.00006-.0001c.72551.52557 1.458 1.06535 2.1471 1.57857q.23194.17281.45618.34057c.299.2237.58685.44008.859.64535q.20444.15416.39589.2991c.08291.06273.16065.12172.2396.18159.23192.322.46486.64311.70215.96056-.11369.09511-.18.15088-.18.15088a11.03761 11.03761 0 0 1 -3.9113-2.06911z"/><path d="m77.40216 65.7582a10.676 10.676 0 0 0 2.58112 1.393 10.29919 10.29919 0 0 1 -.288 2.46849h-4.24781c-1.02971-.72069-2.02935-1.47259-2.99189-2.24105a4.63976 4.63976 0 0 0 1.34752-1.15176l.022-.028c.45291-.5721.97231-1.24255 1.52991-1.97637a.64723.64723 0 0 0 .17525-.00616 18.66232 18.66232 0 0 0 1.8719 1.54185z"/><path d="m76.10526 63.22767c.47216-.63166.96352-1.29963 1.46032-1.98541.49993-.69009 1.00423-1.39877 1.50293-2.11309a49.54437 49.54437 0 0 1 .89315 6.76413c-.16483-.073-.33-.14755-.49883-.23925a15.94316 15.94316 0 0 1 -1.97961-1.2897q-.70861-.53124-1.37796-1.13668z"/></g><path d="m110.70378 103.48645c3.34243 4.88778 13.88285 16.51219 13.88285 16.51219s-14.01505-7.38591-23.02576-20.68532q-1.6614 2.60776-3.2654 5.22358l-1.21632-2.60626-2.14066-4.587a1.81494 1.81494 0 0 0 1.64889-1.80375s-.445-5.37748-.88739-5.93029a.882.882 0 0 0 -.66391-.33514c-.02426-.00154-.04594-.007-.07127-.007h-.71155c-.0002-.04153.00024-.08406.0003-.12594h.45944v-1.25228a2.52767 2.52767 0 0 0 -.22356-1.03273c-.01086-.02437-.02548-.04749-.037-.07161-.02722-.05675-.05706-.11265-.08832-.16806q.03656-.48521.08186-.98436c.01449-.15954.02843-.31825.044-.47954.08906-.92239.194-1.87065.30046-2.82313.11724.01258.23513.02532.35024.03758a40.69976 40.69976 0 0 0 4.0651.34426c.42086 1.64233 2.23085 5.23861 4.40475 9.12976q.36759.65873.74708 1.32472.29411.51533.59222 1.03106c2.03261 3.51711 4.19239 7.00581 5.75395 9.28926z" fill="#63b2bf"/><path d="m0 0h142v120h-142z" fill="none"/></svg>