<svg viewBox="0 0 142 120" xmlns="http://www.w3.org/2000/svg"><circle cx="71" cy="54" fill="#e9edf8" r="54"/><path d="m84.108 38.25352a4.26648 4.26648 0 0 0 -1.5398-.73327 4.26634 4.26634 0 0 1 1.53975.73327c.10711.08065.21337.15491.32049.23365-.1071-.07874-.2133-.15296-.32044-.23365z" fill="#509ba8"/><path d="m86.379 39.80113c-.16137-.09106-.334-.19568-.51465-.31079.18067.11511.35321.21973.51459.31079a7.03369 7.03369 0 0 1 .63391.40442 7.03274 7.03274 0 0 0 -.63385-.40442z" fill="#509ba8"/><path d="m95.1572 55.828q-.58729.653-1.10283 1.21827c.10293.0834.20652.1674.30687.2484 1.8951 1.53 4.457 1.30028 5.54834-.48572 1.97537-3.23276 4.93266-8.133 6.41488-10.88546a1.78716 1.78716 0 0 1 -.47512-.11344 2.65613 2.65613 0 0 1 -1.0099-.89315 16.19131 16.19131 0 0 0 -2.37251 2.62735q-1.19174 1.36479-2.38617 2.72721-2.38275 2.73-4.80509 5.42473z" fill="#368c99"/><path d="m93.65931 46.09158c.46765-.36087.95475-.73624 1.45433-1.121l-2.68423-3.25507c-.0274-.03278-.06031-.06025-.08841-.09233-.12712.82526-.26 1.61-.404 2.34208.20454.26376.41709.53053.645.80226z" fill="#368c99"/><path d="m106.34124 43.089c-.426.49166-.93063 1.07335-1.4874 1.71421l.00279.00895a1.8032 1.8032 0 0 0 3.345.00407l1.40029-3.44888h-1.77105s-.14179.16429-.39888.46162-.6295.72781-1.09075 1.26003z" fill="#87064b"/><path d="m109.1632 32.84828a4.00533 4.00533 0 0 0 3.63746.64073l4.18289-10.30231a1.80565 1.80565 0 0 0 -3.346-1.35854z" fill="#87064b"/><g fill="#509ba8"><path d="m76.5751 18.33958v3.893c.85681.95621 1.76269 1.8726 2.70322 2.74291a44.33821 44.33821 0 0 0 4.34068 3.53788c-.00677-.24368-.00853-.48858-.00053-.73547.02925-.90675.05552-1.87218.14952-2.77853a3.47126 3.47126 0 0 1 -.79306-.94375 4.00384 4.00384 0 0 1 -.23293-3.28786 2.566 2.566 0 0 1 2.1081-1.852 2.50229 2.50229 0 0 1 2.20588 2.29005 5.69965 5.69965 0 0 1 1.02936.3162c2.23531.90579 6.75217.99161 9.181-.86766a4.62572 4.62572 0 0 0 .477-.41933 13.55584 13.55584 0 0 1 -.17587 2.13347c.91485-.94365 5.24346-5.91873-1.11521-9.56246-2.84048-2.43253-9.17421-5.33887-13.131-3.95509-4.81865 1.68549-6.15995 5.3109-6.74616 9.48864z"/><path d="m82.31334 36.96347a4.33707 4.33707 0 0 0 -1.13641-.6151 4.3374 4.3374 0 0 1 1.13635.61513c.29879.2249.59848.44239.89379.65157.5089.36047.99986.6875 1.41515.92189a7.00267 7.00267 0 0 1 .64953.41628 7.00266 7.00266 0 0 0 -.64951-.41631c-.41528-.23438-.9062-.56139-1.41509-.92184-.29531-.2092-.59507-.42669-.89381-.65162z"/><path d="m88.75515 43.01138a24.486 24.486 0 0 0 -1.70594-2.36738 24.48623 24.48623 0 0 1 1.70594 2.36751z"/><path d="m88.72091 40.041c.02017.16493.03037.32748.03645.48957-.00606-.16206-.01626-.32462-.03642-.48954a4.63609 4.63609 0 0 0 -.14832-.73378 4.63587 4.63587 0 0 1 .14829.73375z"/><path d="m86.08062 34.64625-.00056-.00062.00053.00062a5.91641 5.91641 0 0 1 .48024.55408c.03956.05093.077.10309.11483.155-.03783-.05186-.0753-.104-.11483-.155a5.91609 5.91609 0 0 0 -.48021-.55408z"/></g><path d="m76.57514 22.23259v15.23213a4.03683 4.03683 0 0 1 .52338-.49092c.05389-.04212.10945-.08114.16513-.12029 2.62293-1.84457 5.09372.40518 7.35936 1.68384a8.72806 8.72806 0 0 1 2.26889 1.92c.05337.06128.105.12429.15731.18666a24.48706 24.48706 0 0 1 1.70585 2.36742c-.01128-.13844-.10959-3.45251-.18253-3.70419.07293.25169 2.70062 3.8487 3.07471 4.971l.13958.41878c.052-.23518.10111-.48287.15011-.73176.144-.73208.2769-1.51682.404-2.34208.69344-4.50336 1.24282-10.10679 2.78-13.77-.70552 1.41591-1.47611 2.92557-2.1777 4.26568a2.40741 2.40741 0 0 1 -2.82089 1.1899l-2.01394-.58046c-.50964.81288-1.03958 1.68074-1.54764 2.47205.03953.05093.077.10308.11483.155-.03783-.05188-.07527-.104-.11483-.155a5.91506 5.91506 0 0 0 -.48024-.55409c-.18564-.1865-.35521-.38047-.51764-.57812l-.024-.02683c-.0171-.021-.0353-.04138-.05217-.0625-.16212-.20328-.31184-.4128-.45129-.62721-.01532-.02352-.031-.04685-.04605-.07052q-.21114-.33116-.38725-.67824l-.01814-.03623a9.58122 9.58122 0 0 1 -.96043-4.04986 44.37185 44.37185 0 0 1 -4.34519-3.54126c-.94053-.8703-1.84636-1.78669-2.70322-2.7429z" fill="#0d6069"/><path d="m76.57512 52.51634v19.48323a28.07032 28.07032 0 0 0 3.90293 11.09416c1.6317 2.55721 5.07553 4.83491 6.47487 6.00191l1.396.91937.14709.09691.0093.00611q2.009-2.16678 4.018-4.33352l2.14492-2.31335a21.71608 21.71608 0 0 1 3.28735-3.08569 12.67623 12.67623 0 0 1 2.15445-1.20175c.08-.03579.15981-.07191.24046-.10636a30.62769 30.62769 0 0 1 4.78509-1.47847c.13921-.034.27877-.06865.41769-.10234l-.25548-.24636c-2.13886-3.80957-8.03042-9.59707-11.44437-12.32335a6.798 6.798 0 0 1 -1.18672-3.31851l.59192-3.69624c-.2805.30211-.53308.57039-.752.798l-.00657.00681a2.53579 2.53579 0 0 1 -3.58566.05959l-2.52232-2.41691q-.7918-.76091-1.56035-1.547l-.00674-.00669c-.02563-.02625-.05033-.05345-.07591-.07969-.2636-.27043-.5216-.54654-.78167-.82061a4.27 4.27 0 0 1 -3.51491 2.01667c-2.11828 0-3.28717-1.43961-3.87737-3.40592zm20.78102 23.12566a.36261.36261 0 0 1 -.05562-.72081l4.22605-.667.0112-.00177a.35717.35717 0 0 1 .40368.3036l.00013.00087a.362.362 0 0 1 -.302.41341l-4.22608.667a.38324.38324 0 0 1 -.0574.00472zm-2.64407-4.05528a.36265.36265 0 0 1 .30114-.41516l2.50924-.39653a.36252.36252 0 0 1 .11363.71608l-2.50927.39653a.38325.38325 0 0 1 -.0574.00473.36266.36266 0 0 1 -.35734-.30566z" fill="#001927"/><path d="m76.57521 37.46472v4.37763c.42077-2.23939 1.79756-4.214 4.07651-4.14588a4.3341 4.3341 0 0 1 .93246.1293 6.56812 6.56812 0 0 1 2.18356 1.17941c2.87285 2.08467 7.72476 8.76251 7.72476 8.76251.64806-.50317 1.38216-1.07069 2.16688-1.67617l-1.0773-1.324c-.22793-.27174-.44048-.5385-.645-.80226-.049.24889-.09811.49657-.15011.73175l-.13958-.41878a19.75462 19.75462 0 0 0 -3.07471-4.971c.02016.16492.17124 3.56575.18256 3.70424a24.075 24.075 0 0 0 -1.66231-2.36742c-.05231-.0624-.104-.12535-.15731-.18666a17.84678 17.84678 0 0 0 -4.97145-3.67006 4.55809 4.55809 0 0 0 -3.63885-.47272 4.17639 4.17639 0 0 0 -1.06164.53889c-.05567.03916-.11124.07818-.16513.1203a4.03852 4.03852 0 0 0 -.52334.49092z" fill="#001927"/><g fill="#fff"><path d="m98.30957 91.23017a26.86123 26.86123 0 0 0 4.34243 7.20133c1.99367 2.50533 4.24056 4.85069 6.10179 6.9442.175.19683.40183.4277.66429.68214 3.21868 3.12038 12.48313 10.24308 14.998 13.43733.21906.15074-6.53026-12.19842-12.38355-21.65848-4.47753-7.23652-9.00049-14.32134-11.46407-17.97761a10.41918 10.41918 0 0 0 -2.25889 11.37109z"/><path d="m76.57519 41.84239v2.3834c.42818 2.09825 2.53015 3.20939 3.474 3.97531a31.753 31.753 0 0 0 4.68287 3.3709 9.74232 9.74232 0 0 0 4.20962 1.2592 9.36383 9.36383 0 0 0 2.56834-.2377 13.90561 13.90561 0 0 0 5.26089-2.67764c1.75931-1.3377 3.37851-2.91616 5.01606-4.24969.57942-.47187 1.16913-.93716 1.75193-1.40755.51054-.412 1.015-.82852 1.502-1.25718a12.87682 12.87682 0 0 0 3.88675-5.175c.3393.00911 3.768.65975 4.19681.68775l-.67407 1.68512 2.00453-5.01038c.29091-.5794-1.54591-1.72993-1.54591-1.72993-.03535.01281-.07267.01825-.10835.03a4.00534 4.00534 0 0 1 -3.63746-.64074 3.63172 3.63172 0 0 1 -.42978-.39041l-1.76409 1.80967q-1.00413 1.5582-2.00831 3.11643c-2.6366 2.04512-6.52218 5.02573-9.84738 7.5866-.49958.38478-.98668.76015-1.45433 1.121-.78472.60548-1.51882 1.173-2.16688 1.67617 0 0-4.85191-6.67784-7.72476-8.76251a6.56831 6.56831 0 0 0 -2.18356-1.17941 4.33418 4.33418 0 0 0 -.93246-.1293c-2.27895-.0681-3.65575 1.9065-4.07646 4.14589z"/><path d="m83.768 24.99939c-.094.90635-.12027 1.87178-.14952 2.77853-.008.24689-.00624.49179.00053.73547l.0046.00338a9.58137 9.58137 0 0 0 .96043 4.04986l.01814.03623q.17667.34695.38725.67824c.01506.02367.03073.047.04606.07052.13945.21441.28916.42393.45129.62721.01687.02112.03506.0415.05217.0625l.024.02683c.16243.19765.332.39163.51711.57751l.00056.00062a5.917 5.917 0 0 1 .48021.554c.50806-.79131 1.038-1.65917 1.54764-2.472l2.01394.58046a2.40739 2.40739 0 0 0 2.82089-1.1899c.70159-1.34011 1.47218-2.84977 2.1777-4.26568a52.80272 52.80272 0 0 0 2.3815-5.15613c.02324-.1037.04484-.2138.065-.32854a13.55584 13.55584 0 0 0 .17587-2.13347 4.62691 4.62691 0 0 1 -.477.41933c-2.42881 1.85927-6.94567 1.77345-9.181.86766a5.69965 5.69965 0 0 0 -1.02936-.3162 2.50229 2.50229 0 0 0 -2.20588-2.29005 2.566 2.566 0 0 0 -2.1081 1.852 4.0038 4.0038 0 0 0 .23293 3.28786 3.47141 3.47141 0 0 0 .79304.94376z"/></g><path d="m88.50543 90.118-.0093-.00611c.14426.1748.2927.34849.4407.52232 4.03664 4.7421 9.41527 9.12242 14.24155 13.3267.61507 6.408 1.37137 15.02853 1.56182 16.03906h.19048c.25-.49454 1.89765-6.14124 3.72217-11.62591 5.42469 4.12762 12.81857 9.36643 16.12807 11.62591a6.08272 6.08272 0 0 0 -.36478-.50482c-2.51491-3.19425-11.77936-10.317-14.998-13.43733-.26246-.25444-.48929-.48531-.66429-.68214-1.86123-2.09351-4.10812-4.43887-6.10179-6.9442a26.86138 26.86138 0 0 1 -4.34245-7.20133 10.41919 10.41919 0 0 1 2.25887-11.37109c2.46358 3.65626 6.98654 10.74108 11.46406 17.9776.88694-2.91136 1.57978-5.37542 1.85154-6.75789a3.3865 3.3865 0 0 0 -.54378-2.59969c-1.62823-2.34779-5.29048-7.52294-8.20468-10.8802a30.6269 30.6269 0 0 0 -4.78506 1.47844c-.08064.03446-.16046.07058-.24046.10636a12.6773 12.6773 0 0 0 -2.15445 1.20175 21.71608 21.71608 0 0 0 -3.28735 3.08569l-2.14492 2.31338z" fill="#63b2bf"/><path d="m76.57518 44.22581v8.29053c.59018 1.96631 1.75907 3.40592 3.87737 3.40592a4.27 4.27 0 0 0 3.51489-2.01673c.26007.27407.51807.55018.78167.82061.02558.02624.05028.05344.07591.07969.51912.5308 1.03863 1.04736 1.56719 1.5538l2.52241 2.41685.00077.00074a2.53988 2.53988 0 0 0 3.59131-.06722c4.28311-4.45366 8.31394-9.21351 12.34224-13.90115.56172-.64653 2.98195-3.44152 2.98195-3.44152h4.15219l.46733-1.16813.67407-1.68512c-.42881-.028-3.85751-.67864-4.19681-.68775a12.87668 12.87668 0 0 1 -3.88675 5.175c-.487.42866-.99148.84518-1.502 1.25718-.5828.47039-1.17251.93568-1.75193 1.40755-1.63755 1.33353-3.25675 2.912-5.01606 4.2497a13.90575 13.90575 0 0 1 -5.26093 2.67767 9.36383 9.36383 0 0 1 -2.56834.2377 9.74235 9.74235 0 0 1 -4.2096-1.25913 31.75347 31.75347 0 0 1 -4.68288-3.37089c-.94384-.76591-3.04581-1.87705-3.474-3.9753z" fill="#63b2bf"/><path d="m96.99431 75.27863a.36262.36262 0 0 0 .36186.36337.3859.3859 0 0 0 .0574-.00472l4.22608-.667.00085-.00014a.362.362 0 0 0 .301-.41412l-.00177-.0112a.35716.35716 0 0 0 -.41311-.29063l-4.22605.667a.36262.36262 0 0 0 -.30626.35744z" fill="#57617a"/><path d="m94.70756 71.52887a.36266.36266 0 0 0 .36185.36347.38194.38194 0 0 0 .0574-.00473l2.50927-.39652a.36252.36252 0 0 0 -.11363-.71608l-2.50924.39652a.36266.36266 0 0 0 -.30565.35734z" fill="#57617a"/><path d="m76.62691 3.926h-51.03156v116h51.03156zm-46.688 77.48877h42.64118v31.6543h-42.64124zm0-38.25635h42.64118v33.91285h-42.64124zm42.64123-2.76526h-42.64128v-32.12364h42.64123z" fill="#f0a534"/><g fill="#fff"><path d="m65.842 17.197v4.559h-4.103v-3.191h-5.399v21.828h4.558.841 4.103.455 6.283v-23.196z"/><path d="m42.594 19.476v4.137h-4.103v-2.896h-5.399v19.676h4.559.84 4.103.456 5.925.912 6.382v-19.549h-6.382v-1.368z"/><path d="m43.498 57.878-6.311 17.95 3.537 1.243h1.12l6.188-17.599z"/><path d="m61.196 94.495h-5.399v18.574h4.558.841 4.102.456 6.826v-19.815h-7.282v4.136h-4.102z"/><path d="m36.581 95.162h-4.559v17.907h4.559.84 4.63.338 6.043.912 6.382v-16.506h-6.382v-2.33h-6.955v-2.321h-5.808z"/><path d="m65.38606 57.18529h7.19403v19.88599h-7.19403z"/><path d="m59.916 58.114h-4.103v-4.643h-7.293v23.6h6.837.456 4.103.84 4.559v-22.207h-5.399z"/></g><path d="m0 0h142v120h-142z" fill="none"/></svg>